<svg xmlns='http://www.w3.org/2000/svg'>

    

    <symbol id="bell"  viewBox="0 0 32 32" fill="none" xmlns="http://www.w3.org/2000/svg">
       <path fill-rule="evenodd" clip-rule="evenodd" d="M24.9431 11.7278C24.9431 13.4024 25.3857 14.3893 26.3597 15.5268C27.0978 16.3648 27.3337 17.4404 27.3337 18.6073C27.3337 19.7729 26.9507 20.8795 26.1834 21.7779C25.179 22.8549 23.7623 23.5424 22.3166 23.662C20.2215 23.8405 18.1253 23.9909 16.001 23.9909C13.8754 23.9909 11.7804 23.9011 9.68533 23.662C8.23827 23.5424 6.82169 22.8549 5.81855 21.7779C5.05129 20.8795 4.66699 19.7729 4.66699 18.6073C4.66699 17.4404 4.90419 16.3648 5.64098 15.5268C6.64545 14.3893 7.05889 13.4024 7.05889 11.7278V11.1597C7.05889 8.91714 7.6181 7.45071 8.76966 6.01516C10.4817 3.92162 13.2261 2.66602 15.9414 2.66602H16.0606C18.8342 2.66602 21.6673 3.98204 23.3503 6.16556C24.4422 7.57156 24.9431 8.97622 24.9431 11.1597V11.7278ZM12.0986 26.7471C12.0986 26.0758 12.7148 25.7681 13.2846 25.6365C13.9511 25.4956 18.0127 25.4956 18.6793 25.6365C19.2491 25.7681 19.8653 26.0758 19.8653 26.7471C19.8321 27.3863 19.4571 27.9531 18.939 28.313C18.2671 28.8367 17.4787 29.1683 16.6545 29.2879C16.1986 29.347 15.7507 29.3483 15.3107 29.2879C14.4851 29.1683 13.6967 28.8367 13.0262 28.3116C12.5067 27.9531 12.1317 27.3863 12.0986 26.7471Z" fill="white"/>
    </symbol>

    <symbol id="calculator" viewBox="0 0 32 32" fill="none" xmlns="http://www.w3.org/2000/svg">
        <path d="M21.3333 2.66602H10.6667C6.98667 2.66602 4 5.65268 4 9.33268V22.666C4 26.346 6.98667 29.3327 10.6667 29.3327H21.3333C25.0133 29.3327 28 26.346 28 22.666V9.33268C28 5.65268 25.0133 2.66602 21.3333 2.66602ZM11.8133 24.8393C11.56 25.0927 11.2267 25.226 10.88 25.226C10.52 25.226 10.1867 25.0927 9.93333 24.8393C9.68 24.586 9.53333 24.2527 9.53333 23.8927C9.53333 23.546 9.68 23.1993 9.93333 22.946C10.0533 22.826 10.2 22.7327 10.36 22.666C10.6933 22.5327 11.0533 22.5327 11.3867 22.666C11.4667 22.6927 11.5467 22.7327 11.6133 22.786C11.6933 22.826 11.76 22.8927 11.8133 22.946C12.0667 23.1993 12.2133 23.546 12.2133 23.8927C12.2133 24.2527 12.0667 24.586 11.8133 24.8393ZM9.53333 18.5593C9.53333 18.386 9.57333 18.2127 9.64 18.0527C9.70667 17.8793 9.8 17.746 9.93333 17.6127C10.24 17.306 10.7067 17.1593 11.1333 17.2527C11.2133 17.266 11.3067 17.2927 11.3867 17.3327C11.4667 17.3593 11.5467 17.3993 11.6133 17.4527C11.6933 17.4927 11.76 17.5593 11.8133 17.6127C11.9333 17.746 12.04 17.8793 12.1067 18.0527C12.1733 18.2127 12.2 18.386 12.2 18.5593C12.2 18.9193 12.0667 19.2527 11.8133 19.506C11.56 19.7593 11.2267 19.8927 10.88 19.8927C10.6933 19.8927 10.52 19.8527 10.36 19.786C10.2 19.7193 10.0533 19.626 9.93333 19.506C9.68 19.2527 9.53333 18.9193 9.53333 18.5593ZM17.1467 24.8393C17.0267 24.9593 16.88 25.0527 16.72 25.1194C16.56 25.186 16.3867 25.226 16.2 25.226C15.8533 25.226 15.52 25.0927 15.2667 24.8393C15.0133 24.586 14.8667 24.2527 14.8667 23.8927C14.8667 23.7993 14.88 23.7193 14.8933 23.626C14.92 23.546 14.9467 23.466 14.9733 23.386C15.0133 23.306 15.0533 23.226 15.0933 23.146C15.1467 23.0793 15.2 23.0127 15.2667 22.946C15.3867 22.826 15.5333 22.7327 15.6933 22.666C16.1867 22.466 16.7733 22.5727 17.1467 22.946C17.4 23.1993 17.5333 23.546 17.5333 23.8927C17.5333 24.2527 17.4 24.586 17.1467 24.8393ZM17.1467 19.506C16.8933 19.7593 16.56 19.8927 16.2 19.8927C15.8533 19.8927 15.52 19.7593 15.2667 19.506C15.0133 19.2527 14.8667 18.9193 14.8667 18.5593C14.8667 18.2127 15.0133 17.866 15.2667 17.6127C15.76 17.1193 16.6533 17.1193 17.1467 17.6127C17.2667 17.746 17.3733 17.8793 17.44 18.0527C17.5067 18.2127 17.5333 18.386 17.5333 18.5593C17.5333 18.9193 17.4 19.2527 17.1467 19.506ZM12 13.946C10.6267 13.946 9.49333 12.826 9.49333 11.4393V10.106C9.49333 8.73268 10.6133 7.59935 12 7.59935H20C21.3733 7.59935 22.5067 8.71935 22.5067 10.106V11.4393C22.5067 12.8127 21.3867 13.946 20 13.946H12ZM22.48 24.8393C22.2267 25.0927 21.8933 25.226 21.5333 25.226C21.36 25.226 21.1867 25.186 21.0267 25.1194C20.8667 25.0527 20.72 24.9593 20.6 24.8393C20.3467 24.586 20.2133 24.2527 20.2133 23.8927C20.2133 23.546 20.3467 23.1993 20.6 22.946C20.96 22.5727 21.56 22.466 22.0533 22.666C22.2133 22.7327 22.36 22.826 22.48 22.946C22.7333 23.1993 22.8667 23.546 22.8667 23.8927C22.8667 24.2527 22.7333 24.586 22.48 24.8393ZM22.7733 19.066C22.7067 19.226 22.6133 19.3727 22.48 19.506C22.2267 19.7593 21.8933 19.8927 21.5333 19.8927C21.1867 19.8927 20.8533 19.7593 20.6 19.506C20.3467 19.2527 20.2 18.9193 20.2 18.5593C20.2 18.2127 20.3467 17.866 20.6 17.6127C21.0933 17.1193 21.9867 17.1193 22.48 17.6127C22.7333 17.866 22.88 18.2127 22.88 18.5593C22.88 18.7327 22.84 18.906 22.7733 19.066Z" fill="white"/>
    </symbol>

    <symbol id="calendar" viewBox="0 0 32 32" fill="none" xmlns="http://www.w3.org/2000/svg">
        <path d="M22.3333 4.74602V2.66602C22.3333 2.11935 21.88 1.66602 21.3333 1.66602C20.7866 1.66602 20.3333 2.11935 20.3333 2.66602V4.66602H11.6666V2.66602C11.6666 2.11935 11.2133 1.66602 10.6666 1.66602C10.12 1.66602 9.66665 2.11935 9.66665 2.66602V4.74602C6.06665 5.07935 4.31998 7.22602 4.05331 10.4127C4.02665 10.7993 4.34665 11.1193 4.71998 11.1193H27.28C27.6666 11.1193 27.9866 10.786 27.9466 10.4127C27.68 7.22602 25.9333 5.07935 22.3333 4.74602Z" fill="white"/>
        <path d="M26.6667 13.1191H5.33333C4.6 13.1191 4 13.7191 4 14.4525V22.6658C4 26.6658 6 29.3325 10.6667 29.3325H21.3333C26 29.3325 28 26.6658 28 22.6658V14.4525C28 13.7191 27.4 13.1191 26.6667 13.1191ZM12.28 24.2791C12.2133 24.3325 12.1467 24.3991 12.08 24.4391C12 24.4925 11.92 24.5325 11.84 24.5591C11.76 24.5991 11.68 24.6258 11.6 24.6391C11.5067 24.6525 11.4267 24.6658 11.3333 24.6658C11.16 24.6658 10.9867 24.6258 10.8267 24.5591C10.6533 24.4925 10.52 24.3991 10.3867 24.2791C10.1467 24.0258 10 23.6791 10 23.3325C10 22.9858 10.1467 22.6391 10.3867 22.3858C10.52 22.2658 10.6533 22.1725 10.8267 22.1058C11.0667 21.9991 11.3333 21.9725 11.6 22.0258C11.68 22.0391 11.76 22.0658 11.84 22.1058C11.92 22.1325 12 22.1725 12.08 22.2258C12.1467 22.2791 12.2133 22.3325 12.28 22.3858C12.52 22.6391 12.6667 22.9858 12.6667 23.3325C12.6667 23.6791 12.52 24.0258 12.28 24.2791ZM12.28 19.6125C12.0267 19.8525 11.68 19.9991 11.3333 19.9991C10.9867 19.9991 10.64 19.8525 10.3867 19.6125C10.1467 19.3591 10 19.0125 10 18.6658C10 18.3191 10.1467 17.9725 10.3867 17.7191C10.76 17.3458 11.3467 17.2258 11.84 17.4391C12.0133 17.5058 12.16 17.5991 12.28 17.7191C12.52 17.9725 12.6667 18.3191 12.6667 18.6658C12.6667 19.0125 12.52 19.3591 12.28 19.6125ZM16.9467 24.2791C16.6933 24.5191 16.3467 24.6658 16 24.6658C15.6533 24.6658 15.3067 24.5191 15.0533 24.2791C14.8133 24.0258 14.6667 23.6791 14.6667 23.3325C14.6667 22.9858 14.8133 22.6391 15.0533 22.3858C15.5467 21.8925 16.4533 21.8925 16.9467 22.3858C17.1867 22.6391 17.3333 22.9858 17.3333 23.3325C17.3333 23.6791 17.1867 24.0258 16.9467 24.2791ZM16.9467 19.6125C16.88 19.6658 16.8133 19.7191 16.7467 19.7725C16.6667 19.8258 16.5867 19.8658 16.5067 19.8925C16.4267 19.9325 16.3467 19.9591 16.2667 19.9725C16.1733 19.9858 16.0933 19.9991 16 19.9991C15.6533 19.9991 15.3067 19.8525 15.0533 19.6125C14.8133 19.3591 14.6667 19.0125 14.6667 18.6658C14.6667 18.3191 14.8133 17.9725 15.0533 17.7191C15.1733 17.5991 15.32 17.5058 15.4933 17.4391C15.9867 17.2258 16.5733 17.3458 16.9467 17.7191C17.1867 17.9725 17.3333 18.3191 17.3333 18.6658C17.3333 19.0125 17.1867 19.3591 16.9467 19.6125ZM21.6133 24.2791C21.36 24.5191 21.0133 24.6658 20.6667 24.6658C20.32 24.6658 19.9733 24.5191 19.72 24.2791C19.48 24.0258 19.3333 23.6791 19.3333 23.3325C19.3333 22.9858 19.48 22.6391 19.72 22.3858C20.2133 21.8925 21.12 21.8925 21.6133 22.3858C21.8533 22.6391 22 22.9858 22 23.3325C22 23.6791 21.8533 24.0258 21.6133 24.2791ZM21.6133 19.6125C21.5467 19.6658 21.48 19.7191 21.4133 19.7725C21.3333 19.8258 21.2533 19.8658 21.1733 19.8925C21.0933 19.9325 21.0133 19.9591 20.9333 19.9725C20.84 19.9858 20.7467 19.9991 20.6667 19.9991C20.32 19.9991 19.9733 19.8525 19.72 19.6125C19.48 19.3591 19.3333 19.0125 19.3333 18.6658C19.3333 18.3191 19.48 17.9725 19.72 17.7191C19.8533 17.5991 19.9867 17.5058 20.16 17.4391C20.4 17.3325 20.6667 17.3058 20.9333 17.3591C21.0133 17.3725 21.0933 17.3991 21.1733 17.4391C21.2533 17.4658 21.3333 17.5058 21.4133 17.5591C21.48 17.6125 21.5467 17.6658 21.6133 17.7191C21.8533 17.9725 22 18.3191 22 18.6658C22 19.0125 21.8533 19.3591 21.6133 19.6125Z" fill="white"/>
    </symbol>

    <symbol id="message" viewBox="0 0 32 32" fill="none" xmlns="http://www.w3.org/2000/svg">
        <path d="M26.6667 8.99935C28.6917 8.99935 30.3333 7.35773 30.3333 5.33268C30.3333 3.30764 28.6917 1.66602 26.6667 1.66602C24.6416 1.66602 23 3.30764 23 5.33268C23 7.35773 24.6416 8.99935 26.6667 8.99935Z" fill="white"/>
        <path d="M25.387 10.866C23.2937 10.4127 21.587 8.70602 21.1337 6.61268C20.9603 5.79935 20.947 5.01268 21.0937 4.26602C21.267 3.43935 20.6537 2.66602 19.8003 2.66602H9.33366C5.65366 2.66602 2.66699 5.65268 2.66699 9.33268V18.5993C2.66699 22.2793 5.65366 25.266 9.33366 25.266H11.3337C11.707 25.266 12.187 25.506 12.4003 25.7994L14.4003 28.4527C15.2803 29.626 16.7203 29.626 17.6003 28.4527L19.6003 25.7994C19.8537 25.466 20.2403 25.266 20.667 25.266H22.6803C26.3603 25.266 29.3337 22.2927 29.3337 18.6127V12.1993C29.3337 11.3593 28.5603 10.746 27.7337 10.906C26.987 11.0393 26.2003 11.0393 25.387 10.866ZM10.667 15.9993C9.92033 15.9993 9.33366 15.3993 9.33366 14.666C9.33366 13.9327 9.92033 13.3327 10.667 13.3327C11.4003 13.3327 12.0003 13.9327 12.0003 14.666C12.0003 15.3993 11.4137 15.9993 10.667 15.9993ZM16.0003 15.9993C15.2537 15.9993 14.667 15.3993 14.667 14.666C14.667 13.9327 15.2537 13.3327 16.0003 13.3327C16.7337 13.3327 17.3337 13.9327 17.3337 14.666C17.3337 15.3993 16.747 15.9993 16.0003 15.9993ZM21.3337 15.9993C20.587 15.9993 20.0003 15.3993 20.0003 14.666C20.0003 13.9327 20.587 13.3327 21.3337 13.3327C22.067 13.3327 22.667 13.9327 22.667 14.666C22.667 15.3993 22.0803 15.9993 21.3337 15.9993Z" fill="white"/>
    </symbol>

    <symbol  id="home" viewBox='0 0 24 24' fill='none' xmlns='http://www.w3.org/2000/svg'>
        <path
            d='M21 6H16.5V5.25C16.5 4.65326 16.2629 4.08097 15.841 3.65901C15.419 3.23705 14.8467 3 14.25 3H9.75C9.15326 3 8.58097 3.23705 8.15901 3.65901C7.73705 4.08097 7.5 4.65326 7.5 5.25V6H3C2.60218 6 2.22064 6.15804 1.93934 6.43934C1.65804 6.72064 1.5 7.10218 1.5 7.5V18C1.5 18.3978 1.65804 18.7794 1.93934 19.0607C2.22064 19.342 2.60218 19.5 3 19.5H21C21.3978 19.5 21.7794 19.342 22.0607 19.0607C22.342 18.7794 22.5 18.3978 22.5 18V7.5C22.5 7.10218 22.342 6.72064 22.0607 6.43934C21.7794 6.15804 21.3978 6 21 6ZM9 5.25C9 5.05109 9.07902 4.86032 9.21967 4.71967C9.36032 4.57902 9.55109 4.5 9.75 4.5H14.25C14.4489 4.5 14.6397 4.57902 14.7803 4.71967C14.921 4.86032 15 5.05109 15 5.25V6H9V5.25ZM21 7.5V10.5H18V9.75C18 9.55109 17.921 9.36032 17.7803 9.21967C17.6397 9.07902 17.4489 9 17.25 9C17.0511 9 16.8603 9.07902 16.7197 9.21967C16.579 9.36032 16.5 9.55109 16.5 9.75V10.5H7.5V9.75C7.5 9.55109 7.42098 9.36032 7.28033 9.21967C7.13968 9.07902 6.94891 9 6.75 9C6.55109 9 6.36032 9.07902 6.21967 9.21967C6.07902 9.36032 6 9.55109 6 9.75V10.5H3V7.5H21ZM21 18H3V12H6V12.75C6 12.9489 6.07902 13.1397 6.21967 13.2803C6.36032 13.421 6.55109 13.5 6.75 13.5C6.94891 13.5 7.13968 13.421 7.28033 13.2803C7.42098 13.1397 7.5 12.9489 7.5 12.75V12H16.5V12.75C16.5 12.9489 16.579 13.1397 16.7197 13.2803C16.8603 13.421 17.0511 13.5 17.25 13.5C17.4489 13.5 17.6397 13.421 17.7803 13.2803C17.921 13.1397 18 12.9489 18 12.75V12H21V18Z'
            fill='currentColor'
        />
    </symbol>

    <symbol id='portfolio' viewBox="0 0 24 24" fill="none" xmlns="http://www.w3.org/2000/svg">
        <path d="M21 6H16.5V5.25C16.5 4.65326 16.2629 4.08097 15.841 3.65901C15.419 3.23705 14.8467 3 14.25 3H9.75C9.15326 3 8.58097 3.23705 8.15901 3.65901C7.73705 4.08097 7.5 4.65326 7.5 5.25V6H3C2.60218 6 2.22064 6.15804 1.93934 6.43934C1.65804 6.72064 1.5 7.10218 1.5 7.5V18C1.5 18.3978 1.65804 18.7794 1.93934 19.0607C2.22064 19.342 2.60218 19.5 3 19.5H21C21.3978 19.5 21.7794 19.342 22.0607 19.0607C22.342 18.7794 22.5 18.3978 22.5 18V7.5C22.5 7.10218 22.342 6.72064 22.0607 6.43934C21.7794 6.15804 21.3978 6 21 6ZM9 5.25C9 5.05109 9.07902 4.86032 9.21967 4.71967C9.36032 4.57902 9.55109 4.5 9.75 4.5H14.25C14.4489 4.5 14.6397 4.57902 14.7803 4.71967C14.921 4.86032 15 5.05109 15 5.25V6H9V5.25ZM21 7.5V10.5H18V9.75C18 9.55109 17.921 9.36032 17.7803 9.21967C17.6397 9.07902 17.4489 9 17.25 9C17.0511 9 16.8603 9.07902 16.7197 9.21967C16.579 9.36032 16.5 9.55109 16.5 9.75V10.5H7.5V9.75C7.5 9.55109 7.42098 9.36032 7.28033 9.21967C7.13968 9.07902 6.94891 9 6.75 9C6.55109 9 6.36032 9.07902 6.21967 9.21967C6.07902 9.36032 6 9.55109 6 9.75V10.5H3V7.5H21ZM21 18H3V12H6V12.75C6 12.9489 6.07902 13.1397 6.21967 13.2803C6.36032 13.421 6.55109 13.5 6.75 13.5C6.94891 13.5 7.13968 13.421 7.28033 13.2803C7.42098 13.1397 7.5 12.9489 7.5 12.75V12H16.5V12.75C16.5 12.9489 16.579 13.1397 16.7197 13.2803C16.8603 13.421 17.0511 13.5 17.25 13.5C17.4489 13.5 17.6397 13.421 17.7803 13.2803C17.921 13.1397 18 12.9489 18 12.75V12H21V18Z" fill="#111111"/>
    </symbol>

    <symbol id="user" viewBox="0 0 24 24" fill="none" xmlns="http://www.w3.org/2000/svg">
        <path d="M11.5788 12.0561C14.2176 12.0561 16.3568 9.91686 16.3568 7.27803C16.3568 4.6392 14.2176 2.5 11.5788 2.5C8.93998 2.5 6.80078 4.6392 6.80078 7.27803C6.80078 9.91686 8.93998 12.0561 11.5788 12.0561Z" stroke="#3D3D3D" stroke-width="1.5" stroke-linecap="round" stroke-linejoin="round"/>
        <path fill-rule="evenodd" clip-rule="evenodd" d="M4.00002 18.7016C3.99873 18.3657 4.07385 18.0339 4.2197 17.7313C4.67736 16.816 5.96798 16.3309 7.03892 16.1112C7.81128 15.9464 8.59431 15.8362 9.38217 15.7817C10.8408 15.6535 12.3079 15.6535 13.7666 15.7817C14.5544 15.8369 15.3374 15.947 16.1099 16.1112C17.1808 16.3309 18.4714 16.7702 18.9291 17.7313C19.2224 18.3481 19.2224 19.0642 18.9291 19.681C18.4714 20.6421 17.1808 21.0814 16.1099 21.292C15.3384 21.4636 14.5551 21.5768 13.7666 21.6306C12.5794 21.7313 11.3866 21.7496 10.1968 21.6856C9.92221 21.6856 9.65677 21.6856 9.38217 21.6306C8.59663 21.5775 7.81632 21.4643 7.04807 21.292C5.96798 21.0814 4.68652 20.6421 4.2197 19.681C4.0746 19.3749 3.99955 19.0403 4.00002 18.7016Z" stroke="#3D3D3D" stroke-width="1.5" stroke-linecap="round" stroke-linejoin="round"/>
    </symbol>

    <symbol id="request" viewBox="0 0 24 24" fill="none" xmlns="http://www.w3.org/2000/svg">
        <path d="M20.25 3.75H3.75C3.35218 3.75 2.97064 3.90804 2.68934 4.18934C2.40804 4.47064 2.25 4.85218 2.25 5.25V18.75C2.25 19.1478 2.40804 19.5294 2.68934 19.8107C2.97064 20.092 3.35218 20.25 3.75 20.25H20.25C20.6478 20.25 21.0294 20.092 21.3107 19.8107C21.592 19.5294 21.75 19.1478 21.75 18.75V5.25C21.75 4.85218 21.592 4.47064 21.3107 4.18934C21.0294 3.90804 20.6478 3.75 20.25 3.75ZM20.25 18.75H3.75V5.25H20.25V18.75ZM17.25 9C17.25 9.19891 17.171 9.38968 17.0303 9.53033C16.8897 9.67098 16.6989 9.75 16.5 9.75H7.5C7.30109 9.75 7.11032 9.67098 6.96967 9.53033C6.82902 9.38968 6.75 9.19891 6.75 9C6.75 8.80109 6.82902 8.61032 6.96967 8.46967C7.11032 8.32902 7.30109 8.25 7.5 8.25H16.5C16.6989 8.25 16.8897 8.32902 17.0303 8.46967C17.171 8.61032 17.25 8.80109 17.25 9ZM17.25 12C17.25 12.1989 17.171 12.3897 17.0303 12.5303C16.8897 12.671 16.6989 12.75 16.5 12.75H7.5C7.30109 12.75 7.11032 12.671 6.96967 12.5303C6.82902 12.3897 6.75 12.1989 6.75 12C6.75 11.8011 6.82902 11.6103 6.96967 11.4697C7.11032 11.329 7.30109 11.25 7.5 11.25H16.5C16.6989 11.25 16.8897 11.329 17.0303 11.4697C17.171 11.6103 17.25 11.8011 17.25 12ZM17.25 15C17.25 15.1989 17.171 15.3897 17.0303 15.5303C16.8897 15.671 16.6989 15.75 16.5 15.75H7.5C7.30109 15.75 7.11032 15.671 6.96967 15.5303C6.82902 15.3897 6.75 15.1989 6.75 15C6.75 14.8011 6.82902 14.6103 6.96967 14.4697C7.11032 14.329 7.30109 14.25 7.5 14.25H16.5C16.6989 14.25 16.8897 14.329 17.0303 14.4697C17.171 14.6103 17.25 14.8011 17.25 15Z" fill="#343330"/>
    </symbol>

    <symbol id="aplication" viewBox="0 0 24 24" fill="none" xmlns="http://www.w3.org/2000/svg">
        <path d="M9 9.75C9 9.55109 9.07902 9.36032 9.21967 9.21967C9.36032 9.07902 9.55109 9 9.75 9H15.75C15.9489 9 16.1397 9.07902 16.2803 9.21967C16.421 9.36032 16.5 9.55109 16.5 9.75C16.5 9.94891 16.421 10.1397 16.2803 10.2803C16.1397 10.421 15.9489 10.5 15.75 10.5H9.75C9.55109 10.5 9.36032 10.421 9.21967 10.2803C9.07902 10.1397 9 9.94891 9 9.75ZM9.75 13.5H15.75C15.9489 13.5 16.1397 13.421 16.2803 13.2803C16.421 13.1397 16.5 12.9489 16.5 12.75C16.5 12.5511 16.421 12.3603 16.2803 12.2197C16.1397 12.079 15.9489 12 15.75 12H9.75C9.55109 12 9.36032 12.079 9.21967 12.2197C9.07902 12.3603 9 12.5511 9 12.75C9 12.9489 9.07902 13.1397 9.21967 13.2803C9.36032 13.421 9.55109 13.5 9.75 13.5ZM21.75 18C21.75 18.7956 21.4339 19.5587 20.8713 20.1213C20.3087 20.6839 19.5456 21 18.75 21H8.25C7.45435 21 6.69129 20.6839 6.12868 20.1213C5.56607 19.5587 5.25 18.7956 5.25 18V6C5.25 5.60218 5.09196 5.22064 4.81066 4.93934C4.52936 4.65804 4.14782 4.5 3.75 4.5C3.35218 4.5 2.97064 4.65804 2.68934 4.93934C2.40804 5.22064 2.25 5.60218 2.25 6C2.25 6.53813 2.70281 6.90188 2.7075 6.90563C2.83163 7.00115 2.92273 7.13313 2.96804 7.28306C3.01334 7.43299 3.01057 7.59335 2.96011 7.74162C2.90965 7.8899 2.81404 8.01866 2.68668 8.10983C2.55933 8.201 2.40663 8.25002 2.25 8.25C2.08781 8.25028 1.93003 8.19725 1.80094 8.09906C1.69219 8.01937 0.75 7.27594 0.75 6C0.75 5.20435 1.06607 4.44129 1.62868 3.87868C2.19129 3.31607 2.95435 3 3.75 3H16.5C17.2956 3 18.0587 3.31607 18.6213 3.87868C19.1839 4.44129 19.5 5.20435 19.5 6V15.75H20.25C20.4123 15.75 20.5702 15.8026 20.7 15.9C20.8125 15.9806 21.75 16.7241 21.75 18ZM9.02437 16.2638C9.07562 16.1125 9.17342 15.9813 9.30376 15.889C9.4341 15.7968 9.59031 15.7481 9.75 15.75H18V6C18 5.60218 17.842 5.22064 17.5607 4.93934C17.2794 4.65804 16.8978 4.5 16.5 4.5H6.34594C6.61119 4.95535 6.75064 5.47302 6.75 6V18C6.75 18.3978 6.90804 18.7794 7.18934 19.0607C7.47064 19.342 7.85218 19.5 8.25 19.5C8.64782 19.5 9.02936 19.342 9.31066 19.0607C9.59196 18.7794 9.75 18.3978 9.75 18C9.75 17.4619 9.29719 17.0981 9.2925 17.0944C9.16469 17.0029 9.06963 16.8729 9.02136 16.7233C8.97308 16.5738 8.97414 16.4127 9.02437 16.2638ZM20.25 18C20.2406 17.7221 20.1334 17.4565 19.9472 17.25H11.1347C11.2101 17.4929 11.2483 17.7457 11.2481 18C11.2488 18.5267 11.1101 19.0443 10.8459 19.5H18.75C19.1478 19.5 19.5294 19.342 19.8107 19.0607C20.092 18.7794 20.25 18.3978 20.25 18Z" fill="#343330"/>
    </symbol>

    <symbol id="search" viewBox="0 0 24 24" fill="none" xmlns="http://www.w3.org/2000/svg">
        <path d="M11.7669 20.7545C16.7311 20.7545 20.7554 16.7301 20.7554 11.7659C20.7554 6.80166 16.7311 2.77734 11.7669 2.77734C6.80264 2.77734 2.77832 6.80166 2.77832 11.7659C2.77832 16.7301 6.80264 20.7545 11.7669 20.7545Z" stroke="#3D3D3D" stroke-width="1.5" stroke-linecap="round" stroke-linejoin="round"/>
        <path d="M18.0186 18.4844L21.5426 21.9993" stroke="#3D3D3D" stroke-width="1.5" stroke-linecap="round" stroke-linejoin="round"/>
    </symbol>


     <symbol id="c-arrow" viewBox="0 0 12 12" fill="none" xmlns="http://www.w3.org/2000/svg">
        <path d="M5.99935 0.167969C9.21935 0.167969 11.8327 2.7813 11.8327 6.0013C11.8327 9.2213 9.21935 11.8346 5.99935 11.8346C2.77935 11.8346 0.166016 9.2213 0.166016 6.0013C0.166016 2.7813 2.77935 0.167969 5.99935 0.167969ZM6.58268 6.0013H8.33268L5.99935 3.66797L3.66602 6.0013H5.41602V8.33463H6.58268V6.0013Z" fill="#12B76A"/>
    </symbol>


<symbol id="caret" viewBox="0 0 6 10" fill="none" xmlns="http://www.w3.org/2000/svg">
<path d="M3.87852 4.99956L0.166016 1.28706L1.22652 0.226562L5.99952 4.99956L1.22652 9.77256L0.166016 8.71206L3.87852 4.99956Z" fill="#4545FE"/>
</symbol>









   

</svg>
